<?xml version="1.0" standalone="no"?>
<!DOCTYPE svg PUBLIC "-//W3C//DTD SVG 20010904//EN"
 "http://www.w3.org/TR/2001/REC-SVG-20010904/DTD/svg10.dtd">
<svg version="1.0" xmlns="http://www.w3.org/2000/svg"
 width="364.000000pt" height="164.000000pt" viewBox="0 0 364.000000 164.000000"
 preserveAspectRatio="xMidYMid meet">
<metadata>
Created by potrace 1.16, written by Peter Selinger 2001-2019
</metadata>
<g transform="translate(0.000000,164.000000) scale(0.100000,-0.100000)"
fill="#000000" stroke="none">
<path d="M1436 1570 c-90 -27 -153 -169 -201 -456 -29 -169 -33 -178 -92 -190
-65 -13 -66 2 -18 230 19 92 35 173 35 180 0 20 -56 28 -93 13 -27 -12 -38
-11 -67 1 -83 34 -186 -4 -256 -95 -93 -122 -112 -347 -35 -417 47 -43 144
-32 201 23 22 21 40 32 40 25 0 -7 12 -26 26 -43 22 -26 33 -31 70 -31 53 0
97 17 142 54 23 20 32 24 32 13 0 -8 14 -27 32 -42 30 -25 38 -27 99 -23 68 5
150 40 185 80 17 18 18 17 38 -19 25 -44 57 -63 109 -63 49 0 100 24 132 62
16 19 25 24 25 15 0 -9 12 -29 26 -46 22 -26 33 -31 70 -31 55 0 100 18 145
58 l35 30 13 -29 c16 -37 58 -59 113 -59 44 0 71 13 120 58 l27 25 10 -25 c29
-78 144 -78 232 0 l35 30 13 -29 c16 -37 58 -59 113 -59 44 0 71 13 120 58
l27 25 10 -25 c23 -62 104 -76 186 -33 39 21 46 23 41 9 -9 -23 10 -34 57 -34
54 0 81 30 96 110 23 118 69 246 101 280 34 36 55 35 55 -3 -1 -17 5 -27 15
-28 65 -5 103 30 103 95 0 100 -98 126 -173 46 -25 -27 -27 -27 -23 -6 14 70
-135 64 -182 -8 -19 -29 -10 -59 16 -51 11 4 19 4 19 1 0 -4 -13 -70 -30 -147
-32 -151 -39 -163 -97 -175 -65 -13 -66 -3 -17 224 19 92 36 173 37 181 3 25
-56 36 -92 18 -29 -14 -35 -14 -69 0 -54 22 -135 12 -186 -24 -82 -57 -142
-177 -153 -305 -6 -64 -7 -68 -40 -83 -49 -24 -77 -17 -81 20 -2 17 22 148 53
291 30 144 55 273 55 288 0 52 -78 55 -158 6 -27 -16 -33 -26 -30 -48 2 -19 8
-27 21 -26 20 2 22 -18 6 -82 -10 -40 -14 -44 -33 -37 -11 5 -49 8 -83 8 -53
-1 -69 -6 -105 -31 -84 -58 -144 -177 -155 -306 -6 -64 -7 -68 -40 -83 -49
-24 -77 -17 -81 20 -1 17 13 105 33 198 19 92 35 174 35 181 0 20 -56 28 -93
13 -26 -11 -37 -11 -62 -1 -107 46 -237 -23 -301 -160 -21 -44 -30 -78 -50
-183 -6 -30 -72 -73 -122 -80 -35 -5 -42 -2 -57 20 -22 34 -11 72 47 168 116
191 170 351 142 424 -7 17 -55 46 -76 44 -7 0 -26 -5 -42 -9z m-426 -303 c0
-28 -61 -282 -71 -293 -35 -43 -111 -57 -129 -25 -24 46 -2 178 42 250 27 43
74 71 121 71 20 0 37 -2 37 -3z m890 0 c0 -28 -61 -282 -71 -293 -35 -43 -111
-57 -129 -25 -24 46 -2 178 42 250 27 43 74 71 121 71 20 0 37 -2 37 -3z m550
-9 c0 -7 -12 -69 -26 -138 -24 -113 -30 -128 -61 -158 -43 -42 -89 -42 -112 0
-34 60 27 249 92 288 36 22 107 27 107 8z m550 5 c0 -5 -12 -66 -26 -138 -24
-119 -29 -133 -61 -163 -43 -42 -89 -42 -112 0 -34 60 27 249 92 288 31 19
107 28 107 13z"/>
<path d="M268 1350 c-15 -4 -44 -18 -63 -30 -29 -18 -35 -28 -33 -49 2 -18 9
-26 21 -25 10 1 17 -5 17 -15 0 -10 -36 -190 -81 -401 -44 -210 -78 -389 -75
-396 7 -19 76 -18 103 1 27 19 34 42 74 237 29 142 34 156 50 147 30 -16 110
-10 155 11 134 65 227 281 184 429 -29 101 -143 128 -230 54 l-30 -25 0 26 c0
19 -7 29 -26 36 -29 11 -29 11 -66 0z m210 -140 c37 -70 -14 -238 -87 -287
-33 -22 -95 -31 -105 -15 -8 13 48 256 64 278 42 57 104 69 128 24z"/>
<path d="M610 500 c0 -87 -1 -90 -19 -80 -29 15 -93 12 -119 -6 -28 -19 -52
-65 -52 -99 0 -93 99 -157 168 -109 12 8 22 10 22 5 0 -6 11 -11 25 -11 l25 0
0 195 0 195 -25 0 c-25 0 -25 -1 -25 -90z m-25 -135 c48 -47 20 -125 -45 -125
-67 0 -96 88 -44 129 35 27 59 26 89 -4z"/>
<path d="M842 414 c-83 -58 -55 -201 44 -220 56 -10 134 29 134 68 0 13 -44 8
-64 -7 -30 -23 -69 -18 -96 10 l-23 25 96 0 97 0 0 36 c0 28 -8 44 -34 70 -29
29 -41 34 -83 34 -28 0 -58 -7 -71 -16z"/>
<path d="M1380 315 l0 -115 25 0 c24 0 25 2 25 66 0 36 5 74 10 84 16 30 46
43 70 30 18 -9 20 -21 20 -95 0 -84 0 -85 25 -85 25 0 25 1 25 90 0 83 -2 93
-25 115 -26 27 -72 33 -106 15 -13 -7 -19 -7 -19 0 0 5 -11 10 -25 10 l-25 0
0 -115z"/>
<path d="M1744 396 c-30 -30 -34 -40 -34 -86 0 -43 5 -56 28 -80 56 -55 148
-47 190 18 14 21 13 22 -16 22 -16 0 -35 -7 -42 -15 -7 -8 -24 -15 -39 -15
-28 0 -71 25 -71 41 0 5 42 9 95 9 l95 0 0 25 c0 66 -53 115 -126 115 -39 0
-51 -5 -80 -34z"/>
<path d="M2080 315 c0 -108 1 -115 20 -115 17 0 20 7 21 53 1 71 10 97 40 120
22 15 30 17 48 8 19 -11 21 -20 21 -96 0 -84 0 -85 25 -85 25 0 25 1 25 80 0
84 -15 132 -45 144 -30 11 -78 6 -97 -11 -17 -15 -18 -15 -18 0 0 10 -8 17
-20 17 -19 0 -20 -7 -20 -115z"/>
<path d="M2452 414 c-83 -58 -55 -201 44 -220 56 -10 134 29 134 68 0 13 -44
8 -64 -7 -30 -23 -69 -18 -96 10 l-23 25 96 0 97 0 0 36 c0 28 -8 44 -34 70
-29 29 -41 34 -83 34 -28 0 -58 -7 -71 -16z"/>
<path d="M2780 315 c0 -108 1 -115 20 -115 18 0 20 7 20 59 0 74 12 108 45
123 43 19 55 -2 55 -98 0 -83 0 -84 25 -84 25 0 25 1 25 78 0 64 4 82 18 95
23 21 36 21 56 1 12 -11 16 -36 16 -95 0 -72 2 -79 20 -79 19 0 20 7 20 95 0
82 -3 98 -20 115 -24 24 -86 27 -110 5 -15 -14 -18 -14 -30 0 -15 18 -91 20
-108 3 -9 -9 -12 -9 -12 0 0 7 -9 12 -20 12 -19 0 -20 -7 -20 -115z"/>
</g>
</svg>
